<svg xmlns="http://www.w3.org/2000/svg" viewBox="0 0 512 512" style="height: 512px; width: 512px;"><path d="M0 0h512v512H0z" fill="#4ee715" fill-opacity="1"></path><g class="" transform="translate(0,0)" style=""><path d="M388.53 21.53c-38.006 30.546-63.492 66.122-83.952 103.687 12.746 7.812 25.587 14.923 38.516 21.38l88.744 34.04c13.746 3.8 27.583 6.995 41.51 9.625 13.493-42.908 19.872-85.824 19.433-128.73l-104.25-40zm-266.813 3.88l15.133 64.967 68.95 16.38-12.993-64.525-71.09-16.822zm-17.594 6.848L66.896 79.803l12.358 62.025 39.494-46.785-14.625-62.785zm27.783 76.148l-37.094 43.97 52.165 7.718c7.243-2.11 14.482-4.097 21.716-5.967l27.62-30.408-64.407-15.314zm170.57 37.346l8.776 58.912c5.91 6.06 11.636 12.256 17.13 18.615l89.024 34.157 45.317-50.218c-54.72-11.1-108.31-30.82-160.248-61.468zm-70.09 13.482c-49.324 9.35-98.335 21.9-147.224 42.645 40.825 34.878 76.848 72.364 105.988 113.538l149.204-44.686c-26.533-41.862-66.002-77.02-107.97-111.498zM65.71 209.848C45.093 260.13 28.07 311.115 24.24 367.025c24.535 52.892 70.202 90.623 110.764 119.72l42.476-158.45c-29.975-42.853-68.05-81.942-111.77-118.447zM351.07 287.03L195.39 333.66l-42.146 157.22c52.167-7.854 103.99-21.873 155.822-48.26 24.952-53.52 30.504-99.728 42.002-155.587z" fill="#467e25" fill-opacity="1"></path></g><g class="" transform="translate(256,256)" style=""><g><circle cx="128" cy="128" r="128" fill="#467e25" fill-opacity="1"></circle><circle stroke="#4ee715" stroke-opacity="1" fill="#467e25" fill-opacity="1" stroke-width="18" cx="128" cy="128" r="101"></circle><path fill="#4ee715" fill-opacity="1" d="M142.4 151.1h-33.8v-4.5q0-7.7 3.1-13.6 3.1-6 13-15.2l6-5.5q5.3-4.8 7.8-9.2 2.5-4.26 2.5-8.58 0-6.56-4.5-10.21-4.5-3.75-12.6-3.75-7.6 0-16.4 3.18-8.78 3.1-18.34 9.28V63.59q11.34-3.94 20.74-5.82 9.4-1.87 18.1-1.87 22.8 0 34.8 9.37 12 9.29 12 27.19 0 9.14-3.6 16.54-3.7 7.2-12.5 15.5l-6 5.4q-6.4 5.8-8.3 9.3-2 3.5-2 7.7zM108.6 165h33.8v33.4h-33.8z"></path></g></g></svg>